#!OML:ASF \\sashay\E\Suitcase\Project 1\Capture day 1\Session 1\Male1.ASF
:FULLY-SPECIFIED
:DEGREES
688
root 0.716588 16.8978 20.9005 4.50555 1.72959 3.84329
lowerback 2.31251 -0.99119 -7.26805
upperback -3.08569 -1.6127 0.945517
thorax -4.29013 -0.548876 5.16137
lowerneck -14.5024 -0.942616 -1.16152
upperneck 18.498 -1.09818 0.317825
head 8.13483 -0.571333 0.175288
rclavicle 2.26304e-014 8.34896e-015
rhumerus -24.3183 -15.642 -71.2707
rradius 31.5681
rwrist -5.67437
rhand -9.28749 25.2826
rfingers 7.12502
rthumb 16.6697 -4.02164
lclavicle 2.26304e-014 8.34896e-015
lhumerus -25.5312 -3.15715 87.8647
lradius 34.9434
lwrist -3.46012
lhand -4.58694 41.7884
lfingers 7.12502
lthumb 21.1902 70.6502
rfemur -33.0094 2.04443 13.7067
rtibia 19.0763
rfoot -19.1729 -17.7404
rtoes 8.53541
lfemur 6.20016 -2.90782 -30.8709
ltibia 9.69509
lfoot -13.4728 -18.0632
ltoes 39.8879
689
root 0.702614 16.8862 21.0125 4.41338 1.74118 3.87739
lowerback 2.76697 -0.934638 -7.26309
upperback -3.1938 -1.58107 0.852407
thorax -4.67015 -0.516326 5.07316
lowerneck -14.3562 -1.0606 -1.76145
upperneck 18.3901 -1.28306 1.08667
head 8.0834 -0.623853 0.510481
rclavicle -2.17856e-014 1.39149e-014
rhumerus -24.5209 -15.6527 -71.3218
rradius 31.2604
rwrist -5.1706
rhand -9.48925 25.5724
rfingers 7.12502
rthumb 16.4754 -3.74802
lclavicle -2.17856e-014 1.39149e-014
lhumerus -25.6986 -3.8088 87.9836
lradius 35.2388
lwrist -3.08901
lhand -4.12615 42.4634
lfingers 7.12502
lthumb 21.6328 71.2749
rfemur -33.0615 1.50728 14.1831
rtibia 19.4777
rfoot -19.3656 -17.4991
rtoes 0.857284
lfemur 7.30753 -2.73334 -30.8377
ltibia 8.5634
lfoot -13.036 -18.5117
ltoes 40.7548
690
root 0.685876 16.8767 21.1331 4.60772 1.91618 4.28624
lowerback 2.37709 -1.00668 -7.76263
upperback -2.98677 -1.66602 0.711734
thorax -4.21264 -0.569495 5.19766
lowerneck -14.5847 -1.07345 -1.31239
upperneck 18.1225 -1.31824 0.694223
head 8.02957 -0.647756 0.300973
rclavicle 1.25421e-014 1.19271e-015
rhumerus -24.0926 -15.7802 -71.5487
rradius 30.8528
rwrist -5.02033
rhand -9.10049 25.4113
rfingers 7.12502
rthumb 16.8497 -3.8777
lclavicle 1.25421e-014 1.19271e-015
lhumerus -25.2147 -4.01119 88.0487
lradius 35.1654
lwrist -3.39284
lhand -3.82513 42.2407
lfingers 7.12502
lthumb 21.9219 71.0187
rfemur -33.4286 -0.0989941 14.7735
rtibia 19.9478
rfoot -18.5113 -17.7724
rtoes 9.64274
lfemur 7.9159 -2.79797 -31.1746
ltibia 7.85729
lfoot -12.8887 -18.6812
ltoes 40.4743
691
root 0.680607 16.8704 21.2528 4.59291 2.12258 4.13117
lowerback 2.53241 -0.922624 -7.32253
upperback -2.95864 -1.5487 0.631595
thorax -4.29757 -0.523899 4.8626
lowerneck -15.1403 -1.22356 -1.56129
upperneck 18.575 -1.50262 0.894827
head 8.28628 -0.73038 0.384839
rclavicle 7.19973e-015 3.57812e-015
rhumerus -24.2565 -16.2017 -71.4076
rradius 30.6182
rwrist -4.47087
rhand -8.92858 25.8714
rfingers 7.12502
rthumb 17.0152 -3.4034
lclavicle 7.19973e-015 3.57812e-015
lhumerus -25.0722 -4.8318 88.3779
lradius 35.3276
lwrist -2.68255
lhand -3.78861 41.892
lfingers 7.12502
lthumb 21.9569 70.6659
rfemur -33.5399 -1.18962 15.7543
rtibia 20.4598
rfoot -18.051 -17.9232
rtoes 9.43853
lfemur 8.6129 -2.81247 -30.9637
ltibia 7.43406
lfoot -12.4421 -18.6968
ltoes 39.5885
692
root 0.66218 16.8497 21.3681 4.5493 2.1975 4.12962
lowerback 2.78533 -0.819106 -7.26585
upperback -2.92503 -1.42899 0.585366
thorax -4.42468 -0.462796 4.78116
lowerneck -15.2077 -1.26007 -1.28681
upperneck 18.4348 -1.56194 0.634097
head 8.24751 -0.765489 0.245331
rclavicle 3.91326e-014 -5.56597e-015
rhumerus -24.2652 -16.6476 -71.2716
rradius 30.3009
rwrist -4.21044
rhand -8.45218 26.0631
rfingers 7.12502
rthumb 17.4737 -3.1716
lclavicle 3.91326e-014 -5.56597e-015
lhumerus -25.055 -5.16192 88.6283
lradius 35.5807
lwrist -2.97349
lhand -3.33335 42.3828
lfingers 7.12502
lthumb 22.394 71.1047
rfemur -33.6529 -1.47745 16.2943
rtibia 21.0811
rfoot -17.5145 -18.0297
rtoes 4.76542
lfemur 9.37645 -2.71617 -30.8252
ltibia 6.88756
lfoot -12.2408 -19.0644
ltoes 41.0469
693
root 0.64546 16.8354 21.4739 4.78766 2.7539 4.03296
lowerback 2.78747 -0.909758 -6.98496
upperback -2.96486 -1.54154 0.49353
thorax -4.45917 -0.527204 4.53372
lowerneck -14.9863 -1.19732 -1.11592
upperneck 18.168 -1.54212 0.754918
head 8.11773 -0.732496 0.261446
rclavicle -1.42069e-014 1.66979e-014
rhumerus -24.3287 -16.8919 -71.3603
rradius 29.9606
rwrist -4.37393
rhand -8.55201 26.0061
rfingers 7.12502
rthumb 17.3776 -3.23708
lclavicle -1.42069e-014 1.66979e-014
lhumerus -25.2237 -5.83301 88.7941
lradius 35.9852
lwrist -3.29999
lhand -4.49552 41.5595
lfingers 7.12502
lthumb 21.2781 70.4115
rfemur -33.739 -2.01354 16.815
rtibia 21.5086
rfoot -17.7112 -17.3955
rtoes 3.79118
lfemur 9.55642 -3.13641 -30.5491
ltibia 7.0435
lfoot -12.4806 -19.716
ltoes 40.3998
694
root 0.632055 16.8175 21.6067 4.7479 2.92929 4.33818
lowerback 2.63665 -0.999742 -7.17543
upperback -2.72906 -1.65674 0.302644
thorax -4.11207 -0.60124 4.4399
lowerneck -15.1475 -1.12818 -0.959897
upperneck 17.8302 -1.4841 0.777389
head 8.03204 -0.691872 0.249458
rclavicle -1.48685e-014 2.52457e-014
rhumerus -24.0998 -16.832 -71.6859
rradius 29.647
rwrist -4.21128
rhand -8.22305 26.0289
rfingers 7.12502
rthumb 17.6942 -3.18603
lclavicle -1.48685e-014 2.52457e-014
lhumerus -25.0402 -5.93213 88.6784
lradius 35.9793
lwrist -3.7271
lhand -3.75922 41.3844
lfingers 7.12502
lthumb 21.9852 70.155
rfemur -33.5571 -2.23437 16.8482
rtibia 21.9915
rfoot -17.4395 -17.3886
rtoes 0.252261
lfemur 9.94956 -3.15734 -30.7473
ltibia 7.43671
lfoot -12.1485 -20.5279
ltoes 42.8059
695
root 0.617105 16.7899 21.7393 4.7472 3.15571 4.34274
lowerback 2.52576 -1.07633 -7.08603
upperback -2.52924 -1.7404 0.2275
thorax -3.83262 -0.662622 4.30922
lowerneck -15.4419 -1.12261 -0.875336
upperneck 17.7408 -1.5027 0.823002
head 8.05445 -0.689467 0.247197
rclavicle -1.86128e-014 -1.09332e-014
rhumerus -23.7135 -16.6218 -71.9557
rradius 29.0772
rwrist -4.50836
rhand -8.23766 26.5448
rfingers 7.12502
rthumb 17.6802 -2.6714
lclavicle -1.86128e-014 -1.09332e-014
lhumerus -24.9443 -6.27007 88.6804
lradius 36.3392
lwrist -3.39377
lhand -4.61781 41.2688
lfingers 7.12502
lthumb 21.1606 70.134
rfemur -33.2057 -2.4167 17.2075
rtibia 22.414
rfoot -17.7173 -16.4505
rtoes 5.49882
lfemur 10.2684 -3.21565 -30.6277
ltibia 7.91436
lfoot -12.3849 -21.3794
ltoes 42.6459
696
root 0.600455 16.7737 21.8711 4.92584 3.69 4.4971
lowerback 2.79331 -1.16479 -7.38978
upperback -2.81991 -1.90031 0.40109
thorax -4.25714 -0.705881 4.6828
lowerneck -14.9693 -1.27529 -1.44833
upperneck 17.5684 -1.61675 1.00825
head 7.92074 -0.765663 0.393044
rclavicle -4.9325e-014 6.36111e-015
rhumerus -24.2133 -16.0502 -71.5017
rradius 28.8915
rwrist -4.80484
rhand -8.07238 26.0896
rfingers 7.12502
rthumb 17.8392 -3.11216
lclavicle -4.9325e-014 6.36111e-015
lhumerus -25.4307 -6.26591 89.305
lradius 36.0706
lwrist -3.90002
lhand -4.15701 41.1585
lfingers 7.12502
lthumb 21.6032 69.9735
rfemur -32.9841 -3.21923 17.5205
rtibia 22.7668
rfoot -17.3936 -15.5776
rtoes 6.61448
lfemur 10.3835 -3.61963 -30.6215
ltibia 8.42713
lfoot -12.5078 -22.1112
ltoes 43.7883
697
root 0.583405 16.767 22.0087 5.18257 4.12004 4.25199
lowerback 2.67428 -1.20023 -6.98547
upperback -2.93409 -1.92189 0.426396
thorax -4.31491 -0.72379 4.48145
lowerneck -15.0005 -1.46767 -2.01615
upperneck 17.4644 -1.82221 1.38966
head 7.90383 -0.863244 0.589942
rclavicle -2.56044e-014 7.95139e-015
rhumerus -24.7069 -16.2112 -71.3485
rradius 28.9153
rwrist -4.65565
rhand -8.04336 25.7366
rfingers 7.12502
rthumb 17.8671 -3.46266
lclavicle -2.56044e-014 7.95139e-015
lhumerus -25.6701 -6.90064 89.6003
lradius 35.9686
lwrist -4.02194
lhand -4.36834 40.8755
lfingers 7.12502
lthumb 21.4002 69.7137
rfemur -32.7227 -3.07957 17.9787
rtibia 22.9658
rfoot -17.0739 -15.2462
rtoes 6.87587
lfemur 10.2758 -3.91049 -30.1786
ltibia 9.1426
lfoot -11.8228 -22.6625
ltoes 44.9104
698
root 0.571823 16.7565 22.1527 5.33398 4.42059 4.15103
lowerback 2.48142 -1.22645 -6.76498
upperback -2.96361 -1.93205 0.438158
thorax -4.23957 -0.737867 4.36486
lowerneck -14.6454 -1.61257 -2.05281
upperneck 16.8786 -1.98986 1.27271
head 7.64947 -0.95861 0.541625
rclavicle -1.07033e-014 6.55989e-015
rhumerus -24.9751 -16.4181 -71.2066
rradius 28.607
rwrist -4.79019
rhand -7.93208 26.4561
rfingers 7.12502
rthumb 17.9742 -2.73332
lclavicle -1.07033e-014 6.55989e-015
lhumerus -25.8043 -7.28988 89.8402
lradius 35.8907
lwrist -4.15675
lhand -3.88556 41.0995
lfingers 7.12502
lthumb 21.8639 69.8843
rfemur -32.2672 -2.48636 18.0358
rtibia 22.9038
rfoot -16.4596 -15.0006
rtoes 4.22779
lfemur 10.2535 -4.05708 -29.9543
ltibia 9.94631
lfoot -11.6611 -23.1601
ltoes 45.424
699
root 0.558809 16.7487 22.3014 5.74357 4.82047 4.62176
lowerback 2.18548 -1.44396 -7.25354
upperback -3.12446 -2.22893 0.380863
thorax -4.19152 -0.868513 4.58765
lowerneck -14.5846 -1.63481 -2.1893
upperneck 16.7839 -1.99009 1.27572
head 7.60913 -0.967534 0.565562
rclavicle 1.50719e-015 1.23246e-014
rhumerus -25.2569 -16.4111 -71.1522
rradius 28.5394
rwrist -4.22988
rhand -7.28895 25.6042
rfingers 7.12502
rthumb 18.5929 -3.52727
lclavicle 1.50719e-015 1.23246e-014
lhumerus -26.3297 -6.74416 89.9028
lradius 35.9451
lwrist -4.88207
lhand -4.30581 40.895
lfingers 7.12502
lthumb 21.4603 69.7263
rfemur -31.9832 -1.67463 17.2573
rtibia 22.6496
rfoot -15.5946 -14.6944
rtoes 6.22557
lfemur 10.0927 -4.38925 -30.2954
ltibia 10.5405
lfoot -11.4329 -23.6559
ltoes 45.6791
700
root 0.542315 16.7569 22.4436 5.80634 5.33074 3.83575
lowerback 2.26082 -1.56333 -6.38316
upperback -3.37559 -2.35264 0.699395
thorax -4.49552 -0.935682 4.44594
lowerneck -14.0676 -1.62323 -2.37069
upperneck 16.7116 -1.92501 1.17268
head 7.49416 -0.960105 0.57214
rclavicle 8.73255e-015 2.14687e-014
rhumerus -25.7795 -16.1434 -70.7969
rradius 28.1738
rwrist -4.19441
rhand -7.1783 25.4918
rfingers 7.12502
rthumb 18.6993 -3.62947
lclavicle 8.73255e-015 2.14687e-014
lhumerus -26.8187 -7.12894 90.3219
lradius 35.6191
lwrist -4.9857
lhand -4.29582 40.8567
lfingers 7.12502
lthumb 21.4699 69.6869
rfemur -31.5261 -0.651275 17.8273
rtibia 22.2893
rfoot -14.1185 -15.7544
rtoes 12.1939
lfemur 10.0773 -4.85769 -29.3004
ltibia 11.2744
lfoot -10.5766 -23.8431
ltoes 46.8261
701
root 0.527123 16.7719 22.5969 6.01441 5.92433 3.63686
lowerback 2.06675 -1.74379 -6.07158
upperback -3.43922 -2.56687 0.738009
thorax -4.43432 -1.05321 4.31553
lowerneck -14.1209 -1.41467 -1.87798
upperneck 16.7299 -1.68238 0.834619
head 7.49733 -0.844582 0.405668
rclavicle 2.16303e-014 -1.98785e-015
rhumerus -26.1001 -16.2022 -70.8266
rradius 27.9733
rwrist -3.94821
rhand -7.31289 25.654
rfingers 7.12502
rthumb 18.5699 -3.47962
lclavicle 2.16303e-014 -1.98785e-015
lhumerus -27.2594 -6.87584 90.3206
lradius 35.68
lwrist -5.73571
lhand -3.65776 40.6334
lfingers 7.12502
lthumb 22.0826 69.3925
rfemur -31.3023 0.268255 17.6916
rtibia 21.8901
rfoot -11.8344 -17.1636
rtoes 15.7874
lfemur 9.95039 -5.214 -28.8647
ltibia 12.0045
lfoot -9.65334 -24.2009
ltoes 47.2426
